<svg xmlns="http://www.w3.org/2000/svg" version="1.1" xmlns:xlink="http://www.w3.org/1999/xlink" width="512" height="512" x="0" y="0" viewBox="0 0 512 512" style="enable-background:new 0 0 512 512" xml:space="preserve" class=""><g><path d="M195.096 59.178H89.167c-16.542 0-30 13.458-30 30v105.933c0 16.542 13.458 30 30 30h105.93c16.542 0 30-13.458 30-30V89.178c-.001-16.542-13.459-30-30.001-30zM89.167 195.11V89.178h105.93l.003 105.933zM314.611 225.11h105.93c16.543 0 30-13.458 30-30V89.178c0-16.542-13.457-30-30-30h-105.93c-16.542 0-30 13.458-30 30v105.933c0 16.541 13.458 29.999 30 29.999zm0-135.932h105.93l.004 105.933H314.611zM195.096 284.618H89.167c-16.542 0-30 13.458-30 30v105.934c0 16.541 13.458 30 30 30h105.93c16.542 0 30-13.459 30-30V314.618c-.001-16.542-13.459-30-30.001-30zM89.167 420.551V314.618h105.93l.003 105.934zM448.486 427.283l-20.829-20.829A77.757 77.757 0 0 0 441 362.81c0-43.114-35.078-78.191-78.195-78.191-43.116 0-78.193 35.077-78.193 78.191 0 43.121 35.078 78.201 78.193 78.201a77.742 77.742 0 0 0 43.64-13.344l20.829 20.829c6.184 6.184 16.641 5.662 22.197-1.083 4.844-5.883 4.4-14.745-.985-20.13zm-37.495-64.477c0 26.613-21.573 48.188-48.187 48.188s-48.188-21.574-48.188-48.188 21.575-48.188 48.188-48.188 48.187 21.574 48.187 48.188z" fill="#000000" opacity="1" data-original="#000000"></path></g></svg>