<svg xmlns="http://www.w3.org/2000/svg" viewBox="0 0 36 45" x="0px" y="0px"><g data-name="Layer 12"><path d="M18,33H3V23A10,10,0,0,1,13,13a10,10,0,0,1,8.91,5.45,1,1,0,1,0,1.78-.9,11.88,11.88,0,0,0-6.87-5.92,6,6,0,1,0-7.63,0A12,12,0,0,0,1,23V34a1,1,0,0,0,1,1H18a1,1,0,0,0,0-2ZM9,7a4,4,0,1,1,4,4A4,4,0,0,1,9,7ZM34.48,26.77A2.14,2.14,0,0,0,32.83,26H31.71V23.5a4.52,4.52,0,0,0-4.5-4.5,4.47,4.47,0,0,0-4.16,2.8,4.27,4.27,0,0,0-.34,1.7V26H21.59a2.18,2.18,0,0,0-2.14,2.52l.78,4.69A2.16,2.16,0,0,0,22.37,35h9.69a2.17,2.17,0,0,0,2.14-1.81L35,28.52A2.16,2.16,0,0,0,34.48,26.77ZM24.71,23.5a2.32,2.32,0,0,1,.19-.94,2.5,2.5,0,0,1,4.81.94V26h-5ZM33,28.2l-.76,4.65a.18.18,0,0,1-.17.15H22.37a.17.17,0,0,1-.17-.13l-.77-4.68a.17.17,0,0,1,0-.13.18.18,0,0,1,.13-.06H32.83a.18.18,0,0,1,.13.06.17.17,0,0,1,0,.13Z"/></g><text x="0" y="51" fill="#000000" font-size="5px" font-weight="bold" font-family="'Helvetica Neue', Helvetica, Arial-Unicode, Arial, Sans-serif">Created by Humam</text><text x="0" y="56" fill="#000000" font-size="5px" font-weight="bold" font-family="'Helvetica Neue', Helvetica, Arial-Unicode, Arial, Sans-serif">from the Noun Project</text></svg>