<svg xmlns="http://www.w3.org/2000/svg" version="1.1" xmlns:xlink="http://www.w3.org/1999/xlink" width="512" height="512" x="0" y="0" viewBox="0 0 128 128" style="enable-background:new 0 0 512 512" xml:space="preserve"><g><path d="M102.635 23.6 89.3 10.263a1.75 1.75 0 0 0-1.237-.513H26.6a1.75 1.75 0 0 0-1.75 1.75v105a1.75 1.75 0 0 0 1.75 1.75h74.8a1.75 1.75 0 0 0 1.75-1.75V24.836a1.75 1.75 0 0 0-.515-1.236zm-12.823-7.875 7.361 7.361h-7.361zm-61.46 99.025V13.25h57.96v11.586a1.75 1.75 0 0 0 1.75 1.75h11.586v88.164z" fill="#000000" opacity="1" data-original="#000000"></path><path d="M90.619 73.822H37.381a1.75 1.75 0 1 0 0 3.5h53.238a1.75 1.75 0 0 0 0-3.5zM37.381 86.625H64a1.75 1.75 0 0 0 0-3.5H37.381a1.75 1.75 0 0 0 0 3.5zM90.619 92.428H37.381a1.75 1.75 0 1 0 0 3.5h53.238a1.75 1.75 0 0 0 0-3.5zM64 101.732H37.381a1.75 1.75 0 1 0 0 3.5H64a1.75 1.75 0 0 0 0-3.5zM61.256 62.8a11.667 11.667 0 1 0 16.256-16.361V22.051a1.75 1.75 0 0 0-1.75-1.75h-39a1.75 1.75 0 0 0-1.75 1.75v39a1.75 1.75 0 0 0 1.75 1.75zm9.37 1.236a8.182 8.182 0 1 1 8.182-8.182 8.191 8.191 0 0 1-8.182 8.183zM59.512 23.8v7.61l-2.157-1.726a1.751 1.751 0 0 0-2.187 0l-2.156 1.726V23.8zm-21 0h11v11.25a1.75 1.75 0 0 0 2.843 1.367l3.907-3.125 3.907 3.125a1.75 1.75 0 0 0 2.843-1.367V23.8h11v20.878A11.68 11.68 0 0 0 59.465 59.3H38.512z" fill="#000000" opacity="1" data-original="#000000"></path><path d="M73.242 52.279 69.2 56.7l-1.4-1.1a1.75 1.75 0 0 0-2.164 2.751l2.681 2.109a1.75 1.75 0 0 0 2.375-.2l5.135-5.625a1.75 1.75 0 0 0-2.585-2.359z" fill="#000000" opacity="1" data-original="#000000"></path></g></svg>