<svg xmlns="http://www.w3.org/2000/svg" version="1.1" xmlns:xlink="http://www.w3.org/1999/xlink" width="512" height="512" x="0" y="0" viewBox="0 0 512.28 512.28" style="enable-background:new 0 0 512 512" xml:space="preserve"><g><path fill="#ffdf40" d="M106.092 512h75v-30h-45v-30h30v-30h-30v-30h45v-30h-75v150zM277.528 446.32c13.96-7.65 23.56-22.31 23.56-39.32 0-24.81-20.18-45-45-45h-45v150h30v-60h5.73l9.27 17.08 23.3 42.92 26.83-13.42zM256.088 422h-15v-30h15c8.28 0 15 6.72 15 15s-6.72 15-15 15z" opacity="1" data-original="#ffdf40"></path><path fill="#ffbe40" d="M376.092 362h-45v150h30v-60h15c24.814 0 45-20.186 45-45s-20.185-45-45-45zm0 60h-15v-30h15c8.276 0 15 6.724 15 15s-6.723 15-15 15z" opacity="1" data-original="#ffbe40"></path><path fill="#66ccff" d="M301.092 165c0-7.8-.901-15.901-2.701-24.6l33.001-18.9-45-77.999-32.701 18.898c-12.599-10.499-26.999-18.6-42.599-24.3V0h-90v38.099c-15.601 5.7-30 13.801-42.599 24.3L45.792 43.5l-45 77.999 33.001 18.9c-1.8 8.699-2.701 16.8-2.701 24.6s.901 15.899 2.701 24.6L.792 208.5l45 77.999 32.701-18.9c12.599 10.499 26.999 18.6 42.599 24.3V330h90v-38.101c15.601-5.7 30-13.801 42.599-24.3l32.701 18.9 45-77.999-33.001-18.9c1.8-8.701 2.701-16.8 2.701-24.6zm-135 75c-41.4 0-75-33.6-75-75s33.6-75 75-75 75 33.6 75 75-33.6 75-75 75z" opacity="1" data-original="#66ccff"></path><path fill="#2e384d" d="M391.092 330h-90v-30h60v-30.864l11.221-2.915c18.735-4.878 35.522-14.473 48.574-27.744l8.145-8.276 26.47 15.293 15-25.986-26.792-15.469 3.091-11.191c5.677-20.494 5.758-34.907 0-55.693l-3.091-11.191 26.792-15.469-15-25.986-26.47 15.291-8.145-8.276c-13.052-13.271-29.839-22.866-48.574-27.744l-11.221-2.915V30h-60V0h90v38.174c15.703 5.522 30.132 13.77 42.568 24.302l32.827-18.955 45 77.959-33.018 19.058c3.392 16.511 3.599 31.408 0 48.926l33.018 19.058-45 77.959-32.827-18.955c-12.437 10.532-26.865 18.779-42.568 24.302z" opacity="1" data-original="#2e384d"></path><path fill="#59abff" d="M286.393 43.5 253.69 62.399c-12.598-10.499-26.997-18.6-42.598-24.3V0h-45v90c41.4 0 75 33.6 75 75s-33.6 75-75 75v90h45v-38.101c15.601-5.7 30-13.801 42.598-24.3l32.703 18.9 45-77.999-33.003-18.9c1.802-8.701 2.703-16.8 2.703-24.6s-.901-15.901-2.703-24.6l33.003-18.9z" opacity="1" data-original="#59abff"></path><path fill="#ffbe40" d="M306.218 498.58 279.388 512l-23.3-42.92V422c8.28 0 15-6.72 15-15s-6.72-15-15-15v-30c24.82 0 45 20.19 45 45 0 17.01-9.6 31.67-23.56 39.32z" opacity="1" data-original="#ffbe40"></path></g></svg>