<svg xmlns="http://www.w3.org/2000/svg" version="1.1" xmlns:xlink="http://www.w3.org/1999/xlink" width="512" height="512" x="0" y="0" viewBox="0 0 64 64" style="enable-background:new 0 0 512 512" xml:space="preserve" class=""><g><path d="M58.93 24.34h-9.518l-8.185-14.177a3.004 3.004 0 0 0-4.098-1.099L3.572 28.438a3.003 3.003 0 0 0-1.098 4.099l12.25 21.216a2.953 2.953 0 0 0 3.798 1.222 2.98 2.98 0 0 0 1.408.365h39a3.003 3.003 0 0 0 3-3v-25a3.003 3.003 0 0 0-3-3zm0 2a1.001 1.001 0 0 1 1 1v3h-7.054l-2.309-4zm1 11H49.152l3.226-1.862a2.984 2.984 0 0 0 1.442-3.138h6.11zM16.456 52.753 4.206 31.537a1 1 0 0 1 .366-1.366l33.557-19.374a1.001 1.001 0 0 1 1.366.366l12.25 21.216a1.004 1.004 0 0 1-.367 1.366L17.82 53.12a1.001 1.001 0 0 1-1.365-.366zm42.474.587H21.44l24.248-14H59.93v13a1.001 1.001 0 0 1-1 1z" fill="#000000" opacity="1" data-original="#000000"></path><path d="M31.063 26.838a3.005 3.005 0 0 0 4.098 1.098l5.79-3.344a3.004 3.004 0 0 0 1.1-4.098l-2.454-4.248a3.014 3.014 0 0 0-4.098-1.099l-5.792 3.344a3.004 3.004 0 0 0-1.098 4.098zm-.355-6.615L36.5 16.88a1.004 1.004 0 0 1 1.365.367l2.453 4.248a1 1 0 0 1-.366 1.366l-5.791 3.344a1.002 1.002 0 0 1-1.366-.366l-2.453-4.25a1 1 0 0 1 .366-1.365zM21.24 45.229a2.781 2.781 0 0 0-2.782-4.818l-2.313 1.336a2.79 2.79 0 0 0 1.395 5.189c1.012.115 2.834-1.286 3.7-1.707zm-4.382-.683a.785.785 0 0 1 .287-1.067l2.314-1.336a.781.781 0 0 1 .78 1.353l-2.313 1.336a.783.783 0 0 1-1.068-.286zM26.07 41.499a2.761 2.761 0 0 0 2.111-.278l16.968-9.797a2.781 2.781 0 0 0-2.781-4.817L25.4 36.403a2.8 2.8 0 0 0 .67 5.096zm-.034-2.89a.776.776 0 0 1 .364-.473l16.968-9.797a.781.781 0 0 1 .78 1.353l-16.967 9.797a.787.787 0 0 1-1.145-.88z" fill="#000000" opacity="1" data-original="#000000"></path></g></svg>