<svg xmlns="http://www.w3.org/2000/svg" version="1.1" xmlns:xlink="http://www.w3.org/1999/xlink" width="512" height="512" x="0" y="0" viewBox="0 0 512 512" style="enable-background:new 0 0 512 512" xml:space="preserve" class=""><g><path d="M17.824 493.085A8 8 0 0 0 24 496h464a8 8 0 0 0 7.851-9.536l-72-368A8 8 0 0 0 416 112h-64V72a55.972 55.972 0 0 0-76-52.294A55.972 55.972 0 0 0 200 72v40H96a8 8 0 0 0-7.851 6.464l-72 368a8 8 0 0 0 1.675 6.621zM120 418.415 193.904 480H46.096zM409.414 128l68.87 352H222.585l-68.87-352H240v48h-16v16h48v-16h-16v-48h80v48h-16v16h48v-16h-16v-48zM276 37.381A40.014 40.014 0 0 1 296 72v40h-40V72a40.014 40.014 0 0 1 20-34.619zM296 32a40.046 40.046 0 0 1 40 40v40h-24V72a55.824 55.824 0 0 0-16.84-39.979c.28-.005.559-.021.84-.021zm-80 40a40.046 40.046 0 0 1 40-40c.281 0 .56.016.84.021A55.824 55.824 0 0 0 240 72v40h-24zm-113.414 56H112v136h16V128h9.414l66.412 339.442L128 404.253V320h-16v84.253l-75.826 63.189z" fill="#000000" opacity="1" data-original="#000000" class=""></path><path d="M112 280h16v16h-16zM328 312a40 40 0 1 0-40-40 40.046 40.046 0 0 0 40 40zm0-64a24 24 0 1 1-24 24 24.027 24.027 0 0 1 24-24zM264 336h40v16h-40zM320 336h80v16h-80zM248 368h96v16h-96zM360 368h64v16h-64z" fill="#000000" opacity="1" data-original="#000000" class=""></path></g></svg>