<svg xmlns="http://www.w3.org/2000/svg" version="1.1" xmlns:xlink="http://www.w3.org/1999/xlink" width="512" height="512" x="0" y="0" viewBox="0 0 682.667 682.667" style="enable-background:new 0 0 512 512" xml:space="preserve"><g><defs><clipPath id="a" clipPathUnits="userSpaceOnUse"><path d="M0 512h512V0H0Z" fill="#000000" opacity="1" data-original="#000000"></path></clipPath></defs><path d="M0 0h127" style="stroke-width:40;stroke-linecap:square;stroke-linejoin:miter;stroke-miterlimit:10;stroke-dasharray:none;stroke-opacity:1" transform="matrix(1.33333 0 0 -1.33333 257.333 146.667)" fill="none" stroke="#000000" stroke-width="40" stroke-linecap="square" stroke-linejoin="miter" stroke-miterlimit="10" stroke-dasharray="none" stroke-opacity="" data-original="#000000"></path><path d="m0 0-60.889 60.888L0 121.775" style="stroke-width:40;stroke-linecap:square;stroke-linejoin:miter;stroke-miterlimit:10;stroke-dasharray:none;stroke-opacity:1" transform="matrix(1.33333 0 0 -1.33333 469.467 558.367)" fill="none" stroke="#000000" stroke-width="40" stroke-linecap="square" stroke-linejoin="miter" stroke-miterlimit="10" stroke-dasharray="none" stroke-opacity="" data-original="#000000"></path><g clip-path="url(#a)" transform="matrix(1.33333 0 0 -1.33333 0 682.667)"><path d="M0 0c11.891 15.046 21.029 34.011 21.029 54.677 0 48.779-39.544 88.323-88.323 88.323h-97.317" style="stroke-width:40;stroke-linecap:butt;stroke-linejoin:miter;stroke-miterlimit:10;stroke-dasharray:none;stroke-opacity:1" transform="translate(470.97 12)" fill="none" stroke="#000000" stroke-width="40" stroke-linecap="butt" stroke-linejoin="miter" stroke-miterlimit="10" stroke-dasharray="none" stroke-opacity="" data-original="#000000"></path><path d="M0 0h-356.041c-11.028 0-20 8.972-20 20v392c0 11.028 8.972 20 20 20h392c11.028 0 20-8.972 20-20V158.297a149.217 149.217 0 0 0 40-30.415V412c0 33.084-26.916 60-60 60h-392c-33.084 0-60-26.916-60-60V20c0-33.084 26.916-60 60-60h321.892z" style="fill-opacity:1;fill-rule:nonzero;stroke:none" transform="translate(416.041 40)" fill="#000000" data-original="#000000"></path></g></g></svg>