<svg xmlns="http://www.w3.org/2000/svg" version="1.1" xmlns:xlink="http://www.w3.org/1999/xlink" width="512" height="512" x="0" y="0" viewBox="0 0 1065 1065" style="enable-background:new 0 0 512 512" xml:space="preserve"><g><path fill-rule="evenodd" d="M687.715 141.313v338.332H857.37V141.313c0-46.586-38.234-84.829-84.828-84.829-46.598 0-84.828 38.235-84.828 84.828zM270.473 288.98c-11.418-11.418-11.418-29.937 0-41.355 11.425-11.43 29.945-11.43 41.375 0l16.027 16.031 51.79-51.781c-36.036-27.875-87.192-24.55-119.38 7.629-35.36 35.363-35.36 92.695 0 128.062 35.356 35.36 92.695 35.36 128.05 0a90.565 90.565 0 0 0 23.938-85.586l-63.71 63.723c-11.43 11.414-29.95 11.414-41.368 0zM421.23 170.305l36.727-36.73c11.418-11.419 29.941-11.419 41.363 0 11.414 11.425 11.414 29.945 0 41.362l-41.765 41.758c28.945 57.578 17.36 127.024-27.852 172.227-58.215 58.219-152.566 58.219-210.785 0-58.203-58.203-58.203-152.567 0-210.777 55.047-55.047 143.195-58.489 202.312-7.84zM141.695 781.91c-16.16 0-29.254 13.098-29.254 29.254 0 16.152 13.094 29.25 29.254 29.25 16.153 0 29.254-13.098 29.254-29.25 0-16.156-13.101-29.254-29.254-29.254zM258.7 840.414c-16.164 0-29.25-13.098-29.25-29.25 0-16.156 13.086-29.254 29.25-29.254h282.762c16.152 0 29.25 13.098 29.25 29.254 0 16.152-13.098 29.25-29.25 29.25zM141.695 664.91c-16.16 0-29.254 13.09-29.254 29.25 0 16.152 13.094 29.25 29.254 29.25 16.153 0 29.254-13.098 29.254-29.25 0-16.16-13.101-29.25-29.254-29.25zm117.004 58.5c-16.164 0-29.25-13.098-29.25-29.25 0-16.16 13.086-29.25 29.25-29.25h282.762c16.152 0 29.25 13.09 29.25 29.25 0 16.152-13.098 29.25-29.25 29.25zm429.016-185.262v429.02c0 16.156-13.094 29.25-29.25 29.25H24.69c-16.164 0-29.25-13.094-29.25-29.25V138.387C-4.559 61.02 58.47-2.02 135.848-2.02h636.695c78.89 0 143.332 64.446 143.332 143.332v367.583c0 16.156-13.098 29.253-29.254 29.253zM657.16 56.484c-17.543 23.778-27.945 53.141-27.945 84.828v796.606H53.94V138.387c0-45.07 36.829-81.903 81.907-81.903zM141.695 547.902c-16.16 0-29.254 13.098-29.254 29.25 0 16.157 13.094 29.254 29.254 29.254 16.153 0 29.254-13.097 29.254-29.254 0-16.152-13.101-29.25-29.254-29.25zM258.7 606.406h282.762c16.152 0 29.25-13.097 29.25-29.254 0-16.152-13.098-29.25-29.25-29.25H258.699c-16.164 0-29.25 13.098-29.25 29.25 0 16.157 13.086 29.254 29.25 29.254zm0 0" fill="#000000" opacity="1" data-original="#000000"></path></g></svg>