<svg xmlns="http://www.w3.org/2000/svg" version="1.1" xmlns:xlink="http://www.w3.org/1999/xlink" width="512" height="512" x="0" y="0" viewBox="0 0 512 512" style="enable-background:new 0 0 512 512" xml:space="preserve"><g><path d="M383.5 504.5H76V60m0-15V7.5h360v497h-37.5" style="fill-rule:evenodd;clip-rule:evenodd;stroke-width:15.0001;stroke-miterlimit:22.9256;" fill-rule="evenodd" clip-rule="evenodd" fill="none" stroke="#000000" stroke-width="15.0001" stroke-miterlimit="22.9256" data-original="#000000"></path><path d="M128.499 177.25H383.5c8.25 0 15 6.751 15 15v172.499h-285V192.25c0-8.25 6.75-15 14.999-15zM113.5 214.749h285m-285 112.499h285m-285-37.499h285m-285-37.5h285M308.501 177.25v187.499M135.999 67.5V45M136 149.999v-22.5M115.652 120.216c2.632 4.355 7.415 7.283 12.848 7.283h15c8.25 0 15-6.75 15-15s-6.75-15-15-15h-15.001c-8.249 0-15-6.75-15-15s6.75-14.999 15-14.999h15c5.433 0 10.215 2.928 12.848 7.283M188.499 112.499h172.5m-172.5-30h93.75M308.5 422.001H406M308.5 452H406M406 45V30m0 45V60" style="fill-rule:evenodd;clip-rule:evenodd;stroke-width:15.0001;stroke-miterlimit:22.9256;" fill-rule="evenodd" clip-rule="evenodd" fill="none" stroke="#000000" stroke-width="15.0001" stroke-miterlimit="22.9256" data-original="#000000"></path></g></svg>