<svg xmlns="http://www.w3.org/2000/svg" version="1.1" xmlns:xlink="http://www.w3.org/1999/xlink" width="512" height="512" x="0" y="0" viewBox="0 0 512 512" style="enable-background:new 0 0 512 512" xml:space="preserve" class=""><g><path d="M490.48 419.12h-50.97V21.517c0-4.124-2.485-7.839-6.296-9.418a10.19 10.19 0 0 0-11.111 2.211l-51.169 51.165-24.254-48.516a10.2 10.2 0 0 0-8.487-5.618 10.17 10.17 0 0 0-9.114 4.522L298.04 62.416l-22.726-45.457c-3.287-6.569-12.247-7.615-16.949-1.967l-42.234 50.676-33.209-49.805c-4.024-6.042-12.93-6.061-16.964 0l-33.21 49.805-42.229-50.676a10.192 10.192 0 0 0-18.025 6.524V419.12h-50.98c-5.628 0-10.19 4.562-10.19 10.189v61.171c0 5.638 4.563 10.199 10.19 10.199H490.48c5.633 0 10.195-4.562 10.195-10.199v-61.17c.001-5.628-4.562-10.19-10.195-10.19zM31.715 439.51h40.78v40.78h-40.78zm61.17-389.834 32.94 39.535c4.323 5.18 12.511 4.846 16.316-.872l32.298-48.445 32.298 48.445c3.815 5.728 12.003 6.046 16.316.872l40.995-49.192 23.612 47.225a10.19 10.19 0 0 0 17.6 1.096l31.033-46.552 22.731 45.457c3.103 6.206 11.395 7.581 16.325 2.65L419.12 46.13v434.16H92.885V49.676zM480.29 480.29h-40.779v-40.78h40.779z" fill="#000000" opacity="1" data-original="#000000" class=""></path><path d="M238.16 266.199a2.552 2.552 0 0 1-2.55-2.55c0-5.636-4.567-10.197-10.195-10.197s-10.195 4.562-10.195 10.197c0 12.641 10.29 22.94 22.94 22.94h7.645v10.189c0 5.628 4.563 10.2 10.195 10.2 5.628 0 10.195-4.572 10.195-10.2V286.59h7.645c12.65 0 22.94-10.3 22.94-22.94v-35.688c0-12.646-10.29-22.935-22.94-22.935h-7.645v-40.78h7.645a2.55 2.55 0 0 1 2.55 2.545 10.192 10.192 0 0 0 10.195 10.195c5.628 0 10.195-4.562 10.195-10.195 0-12.646-10.29-22.935-22.94-22.935h-7.645v-10.195c0-5.633-4.567-10.195-10.195-10.195a10.192 10.192 0 0 0-10.195 10.195v10.195h-7.645c-12.65 0-22.94 10.29-22.94 22.935v35.685c0 12.645 10.29 22.94 22.94 22.94h7.645v40.782zm0-61.172a2.552 2.552 0 0 1-2.55-2.55v-35.685a2.547 2.547 0 0 1 2.55-2.545h7.645v40.78zm28.035 20.39h7.645a2.551 2.551 0 0 1 2.55 2.545v35.688a2.556 2.556 0 0 1-2.55 2.55h-7.645zM347.755 327.369h-183.51c-5.628 0-10.195 4.563-10.195 10.19s4.567 10.19 10.195 10.19h183.51c5.628 0 10.195-4.563 10.195-10.19s-4.567-10.19-10.195-10.19zM347.755 378.34h-183.51c-5.628 0-10.195 4.563-10.195 10.189 0 5.639 4.567 10.2 10.195 10.2h183.51c5.628 0 10.195-4.562 10.195-10.2 0-5.627-4.567-10.189-10.195-10.189zM347.755 429.31h-183.51c-5.628 0-10.195 4.572-10.195 10.2s4.567 10.19 10.195 10.19h183.51c5.628 0 10.195-4.563 10.195-10.19s-4.567-10.2-10.195-10.2z" fill="#000000" opacity="1" data-original="#000000" class=""></path></g></svg>