<svg xmlns="http://www.w3.org/2000/svg" version="1.1" xmlns:xlink="http://www.w3.org/1999/xlink" width="512" height="512" x="0" y="0" viewBox="0 0 48 48" style="enable-background:new 0 0 512 512" xml:space="preserve"><g><path d="M37.992 27.813h-7.657v-.836a4.152 4.152 0 0 0-3.025-4.1l-7.762-1.762v-1.85a5.815 5.815 0 0 0 1.85-2.709 3.718 3.718 0 0 0 1.095-.243c1.381-.539 2.283-2.52 2.054-4.509a2.037 2.037 0 0 0-.8-1.505 1.907 1.907 0 0 0-.636-.291 5.182 5.182 0 0 0 .871-1.292A8.078 8.078 0 0 0 23.2.427a.812.812 0 0 0-1.2 0c-.008.009-.738.836-1.446.689a9.735 9.735 0 0 1-1.28-.378 12.309 12.309 0 0 0-4.466-.793c-4.194 0-6.829 1.578-7.418 4.444a6.371 6.371 0 0 0 1.481 5.6 1.951 1.951 0 0 0-.726.313 2.043 2.043 0 0 0-.8 1.506c-.23 1.989.673 3.97 2.053 4.509a3.609 3.609 0 0 0 .953.228 5.8 5.8 0 0 0 2.049 2.864v1.7L4.57 22.89a4.134 4.134 0 0 0-2.959 4.083v14.01A2.889 2.889 0 0 0 4.5 43.872h2.455v3.378a.75.75 0 0 0 1.5 0v-3.378h6.111l2.64.955-.728 2.186a.75.75 0 0 0 .711.987H31.77a.75.75 0 0 0 .711-.513L38.7 28.8a.751.751 0 0 0-.712-.988Zm-15.444-3.025-1.669-.129a.761.761 0 0 0-.657.3.747.747 0 0 0-.1.714l.629 1.678L17.415 32l1.96-9.386 2.446.554Zm-10.819.169a.768.768 0 0 0-.657-.3l-1.672.131.727-1.621 2.444-.555.719 3.5a.75.75 0 0 0 1.469-.3l-.34-1.651a4.248 4.248 0 0 0 3.092.031l-1.551 7.437-.76-3.716a.749.749 0 1 0-1.468.3l.768 3.777-3.3-4.64.63-1.679a.747.747 0 0 0-.101-.714Zm6.319-3.336A1.943 1.943 0 0 1 16 22.963a2.038 2.038 0 0 1-2.1-1.356V20.22a5.823 5.823 0 0 0 1.984.353 5.749 5.749 0 0 0 2.16-.422Zm3.873-6.772a2.175 2.175 0 0 1-.25.075c0-.047.007-.093.007-.141v-3.207a2.013 2.013 0 0 1 1.153 0 .651.651 0 0 1 .153.407c.153 1.317-.447 2.624-1.063 2.866Zm-11.949 0c-.617-.242-1.216-1.545-1.064-2.866a.658.658 0 0 1 .154-.407 1.764 1.764 0 0 1 1.015-.024v3.231c0 .033.005.066.005.1-.037-.013-.072-.019-.11-.034Zm1.677-.066v-3.674a3.947 3.947 0 0 0 .559-.589 10.773 10.773 0 0 0 .848-1.279c.132.062.28.126.443.19a.786.786 0 1 0 .576-1.463 5.625 5.625 0 0 1-.926-.456.787.787 0 0 0-1.177.378 7.5 7.5 0 0 1-1.012 1.672c-.044.058-.088.105-.131.152a5.133 5.133 0 0 1-1.9-5.009c.542-2.634 3.5-3.187 5.877-3.187a10.659 10.659 0 0 1 3.955.708 11.167 11.167 0 0 0 1.479.433 2.884 2.884 0 0 0 2.187-.54 6.782 6.782 0 0 1 .109 5.981 5.319 5.319 0 0 1-1.106 1.4c-.238-.969-.616-1.862-1.227-2.127a1.11 1.11 0 0 0-1.1.131 3.726 3.726 0 0 1-3.031.942.787.787 0 0 0-.148 1.567 5.086 5.086 0 0 0 3.718-.97 9.262 9.262 0 0 1 .464 1.9v3.838a4.228 4.228 0 0 1-8.456 0ZM31.229 46.5h-13l.49-1.468 4.057-.714a.741.741 0 0 0 .4-.207l2.9-2.888a1.87 1.87 0 0 0-1.319-3.194h-3.7l1.687-5.064a.751.751 0 0 0-1.424-.475l-.865 2.6-1.845.31a.751.751 0 0 0-.477.294l-1.322 1.79H8.737v-4.42a.75.75 0 0 0-1.5 0v5.17a.75.75 0 0 0 .75.75h9.2a.752.752 0 0 0 .6-.3l1.367-1.852.75-.128-.604 1.838a.749.749 0 0 0 .712.987h4.743a.37.37 0 0 1 .261.631l-2.73 2.722-4.068.716-2.768-1v-2.225a.75.75 0 0 0-1.5 0v2H4.5a1.387 1.387 0 0 1-1.386-1.385V26.977a2.611 2.611 0 0 1 1.859-2.639l3.327-.755-.781 1.743a.748.748 0 0 0 .071.738.757.757 0 0 0 .671.317l1.755-.136-.357.951a.749.749 0 0 0 .091.7l5.594 7.864a.75.75 0 0 0 .61.315.746.746 0 0 0 .609-.313L22.2 27.9a.748.748 0 0 0 .093-.7l-.356-.951 1.754.136a.757.757 0 0 0 .671-.317.748.748 0 0 0 .072-.738l-.783-1.745 3.259.738a2.63 2.63 0 0 1 1.925 2.658v.836h-5.423a.753.753 0 0 0-.712.513l-.547 1.642a.75.75 0 1 0 1.424.474l.376-1.129h13Z" fill="#000000" opacity="1" data-original="#000000"></path><path d="M45.635.067H29.13a.75.75 0 0 0-.75.75v10.421a.75.75 0 0 0 .75.75h1.019l-1.705 3.857a.75.75 0 0 0 1.088.936l7.549-4.793h8.554a.75.75 0 0 0 .75-.75V.817a.75.75 0 0 0-.75-.75Zm-.75 10.421h-8.022a.753.753 0 0 0-.4.117l-5.645 3.584 1.17-2.647a.749.749 0 0 0-.685-1.054H29.88V1.567h15.005Z" fill="#000000" opacity="1" data-original="#000000"></path><path d="M37.382 5.375h5.025a.75.75 0 0 0 0-1.5h-5.025a.75.75 0 0 0 0 1.5ZM32.694 5.375h1.9a.75.75 0 0 0 0-1.5h-1.9a.75.75 0 1 0 0 1.5ZM42.407 7.278h-1.7a.75.75 0 1 0 0 1.5h1.7a.75.75 0 0 0 0-1.5ZM32.694 8.778h5.1a.75.75 0 0 0 0-1.5h-5.1a.75.75 0 1 0 0 1.5Z" fill="#000000" opacity="1" data-original="#000000"></path></g></svg>