<svg xmlns="http://www.w3.org/2000/svg" version="1.1" xmlns:xlink="http://www.w3.org/1999/xlink" width="512" height="512" x="0" y="0" viewBox="0 0 96 96" style="enable-background:new 0 0 512 512" xml:space="preserve" fill-rule="evenodd"><g><path d="M83.077 33.41v51.674a1.5 1.5 0 0 0 3 0V33.41a1.5 1.5 0 0 0-3 0zM12.923 85.084V33.41a1.5 1.5 0 0 0-3 0v51.674a1.5 1.5 0 0 0 3 0zM65.275 48.576a1.497 1.497 0 0 0-1.433-1.943H26.085a1.502 1.502 0 0 0-1.433 1.943l4.85 15.725a1.5 1.5 0 0 0 1.433 1.058h28.057a1.5 1.5 0 0 0 1.433-1.058zm-3.465 1.057-3.925 12.726H32.042l-3.925-12.726z" fill="#000000" opacity="1" data-original="#000000"></path><path d="M74.065 37.787h-7.494a1.5 1.5 0 0 0-1.434 1.058l-6.462 20.952a1.5 1.5 0 1 0 2.866.884l6.137-19.894h6.387a1.5 1.5 0 0 0 0-3zM52.659 47.691l-4.85 15.725a1.5 1.5 0 0 0 2.866.885l4.85-15.725a1.5 1.5 0 0 0-2.866-.885zM34.402 48.576l4.85 15.725a1.5 1.5 0 0 0 2.866-.885l-4.85-15.725a1.5 1.5 0 0 0-2.866.885zM37.655 68.256a5.113 5.113 0 0 0-5.111 5.111c0 2.82 2.29 5.11 5.111 5.11 2.82 0 5.11-2.29 5.11-5.11a5.113 5.113 0 0 0-5.11-5.111zm0 3a2.111 2.111 0 1 1-.002 4.22 2.111 2.111 0 0 1 .002-4.22zM52.272 68.256c-2.82 0-5.11 2.29-5.11 5.111 0 2.82 2.29 5.11 5.11 5.11a5.113 5.113 0 0 0 5.111-5.11 5.113 5.113 0 0 0-5.111-5.111zm0 3a2.111 2.111 0 1 1 0 4.22 2.111 2.111 0 0 1 0-4.22zM93.17 16.793c0-.643-.41-1.214-1.019-1.421L48.481.579a1.508 1.508 0 0 0-.962 0L3.849 15.372a1.501 1.501 0 0 0-1.019 1.421V33.41a1.5 1.5 0 0 0 1.5 1.5h87.34a1.5 1.5 0 0 0 1.5-1.5zm-3 1.076V31.91H5.83V17.869L48 3.584z" fill="#000000" opacity="1" data-original="#000000"></path><path d="M48 10.888a6.82 6.82 0 0 0-6.817 6.817c0 3.762 3.054 6.817 6.817 6.817s6.817-3.055 6.817-6.817A6.82 6.82 0 0 0 48 10.888zm0 3c2.107 0 3.817 1.71 3.817 3.817s-1.71 3.817-3.817 3.817-3.817-1.71-3.817-3.817 1.71-3.817 3.817-3.817zM93.17 85.084a1.5 1.5 0 0 0-1.5-1.5H4.33a1.5 1.5 0 0 0-1.5 1.5V94a1.5 1.5 0 0 0 1.5 1.5h87.34a1.5 1.5 0 0 0 1.5-1.5zm-3 1.5V92.5H5.83v-5.916z" fill="#000000" opacity="1" data-original="#000000"></path></g></svg>